<svg xmlns="http://www.w3.org/2000/svg" width="512" height="512" viewBox="0 0 512 512"><title>ynotbit signal window, 512px optical master</title><defs><linearGradient id="paper" x2="0" y2="1"><stop stop-color="#FFFDF5"/><stop offset="1" stop-color="#EDE6D5"/></linearGradient><linearGradient id="flap" x2="0" y2="1"><stop stop-color="#FFFDF7"/><stop offset="1" stop-color="#F5EFDF"/></linearGradient><linearGradient id="navy" x2=".7" y2="1"><stop stop-color="#345A7A"/><stop offset=".5" stop-color="#193650"/><stop offset="1" stop-color="#0D2135"/></linearGradient><clipPath id="env"><rect x="25.6" y="82" width="460.8" height="348.16" rx="40.96" fill="white" /></clipPath></defs><rect x="25.6" y="91.21600000000001" width="460.8" height="348.16" rx="40.96" fill="#BDB4A2" opacity="0.28"/><rect x="25.6" y="82" width="460.8" height="348.16" rx="40.96" fill="url(#paper)" /><rect x="28.16" y="84.56" width="455.68" height="343.04" rx="40.96" fill="none" stroke="#B9B7AD" stroke-width="3.3280000000000003"/><g clip-path="url(#env)"><path d="M25.6 169.65440000000004l40.96 30.72v97.28l-40.96 -30.72z" fill="#DB5149"/><path d="M486.40000000000003 169.65440000000004l-40.96 30.72v97.28l40.96 -30.72z" fill="#2871B8"/><path d="M25.6 281.0656l40.96 30.72v97.28l-40.96 -30.72z" fill="#2871B8"/><path d="M486.40000000000003 281.0656l-40.96 30.72v97.28l40.96 -30.72z" fill="#DB5149"/></g><g clip-path="url(#env)"><path d="M25.6 172.5216L256 270.0064L486.40000000000003 172.5216" fill="none" stroke="#19334B" stroke-width="23.552" stroke-linecap="round" stroke-linejoin="round"/><path d="M256 270.0064V357.0464" fill="none" stroke="#19334B" stroke-width="23.552" stroke-linecap="round" stroke-linejoin="round"/></g></svg>