<svg xmlns="http://www.w3.org/2000/svg" width="64" height="64" viewBox="0 0 64 64"><title>ynotbit signal-clasp application, 32px optical master</title><defs><linearGradient id="paper" x2="0" y2="1"><stop stop-color="#FFFDF5"/><stop offset="1" stop-color="#EDE6D5"/></linearGradient><linearGradient id="flap" x2="0" y2="1"><stop stop-color="#FFFDF7"/><stop offset="1" stop-color="#F5EFDF"/></linearGradient><linearGradient id="navy" x2=".7" y2="1"><stop stop-color="#345A7A"/><stop offset=".5" stop-color="#193650"/><stop offset="1" stop-color="#0D2135"/></linearGradient><clipPath id="env"><rect x="6" y="6" width="52" height="52" rx="12" fill="white" /></clipPath></defs><rect x="6" y="6" width="52" height="52" rx="12" fill="#FFF9EC" /><g clip-path="url(#env)"><path d="M6 19.68l6 4v12l-6 -4z" fill="#DB5149"/><path d="M58 19.68l-6 4v12l6 -4z" fill="#2871B8"/><path d="M6 36.32l6 4v12l-6 -4z" fill="#2871B8"/><path d="M58 36.32l-6 4v12l6 -4z" fill="#DB5149"/></g><g clip-path="url(#env)"><path d="M6 20L32 34L58 20" fill="none" stroke="#19334B" stroke-width="4" stroke-linecap="round" stroke-linejoin="round"/><path d="M32 34V48" fill="none" stroke="#19334B" stroke-width="4" stroke-linecap="round" stroke-linejoin="round"/></g><path d="M27.14 29.32V24.46A4.86 4.86 0 0 1 36.86 24.46V29.32" fill="none" stroke="#FFF9EC" stroke-width="6" stroke-linecap="round" stroke-linejoin="round"/><path d="M27.14 29.32V24.46A4.86 4.86 0 0 1 36.86 24.46V29.32" fill="none" stroke="#19334B" stroke-width="2" stroke-linecap="round" stroke-linejoin="round"/><rect x="23" y="27.16" width="18" height="15.12" rx="2" fill="#19334B" stroke="#FFF9EC" stroke-width="2" paint-order="stroke"/><rect x="32" y="32" width="2" height="4" rx="0" fill="#FFF9EC" /></svg>