<svg xmlns="http://www.w3.org/2000/svg" width="256" height="256" viewBox="0 0 256 256"><title>ynotbit signal-seal application, 256px optical master</title><defs><linearGradient id="paper" x2="0" y2="1"><stop stop-color="#FFFDF5"/><stop offset="1" stop-color="#EDE6D5"/></linearGradient><linearGradient id="flap" x2="0" y2="1"><stop stop-color="#FFFDF7"/><stop offset="1" stop-color="#F5EFDF"/></linearGradient><linearGradient id="navy" x2=".7" y2="1"><stop stop-color="#345A7A"/><stop offset=".5" stop-color="#193650"/><stop offset="1" stop-color="#0D2135"/></linearGradient><clipPath id="env"><rect x="25.6" y="25.6" width="204.8" height="204.8" rx="48.64" fill="white" /></clipPath></defs><rect x="25.6" y="30.208000000000002" width="204.8" height="204.8" rx="48.64" fill="#BDB4A2" opacity="0.28"/><rect x="25.6" y="25.6" width="204.8" height="204.8" rx="48.64" fill="url(#paper)" /><rect x="26.880000000000003" y="26.880000000000003" width="202.24" height="202.24" rx="48.64" fill="none" stroke="#B9B7AD" stroke-width="1.6640000000000001"/><g clip-path="url(#env)"><path d="M25.6 79.872l20.48 15.36v48.64l-20.48 -15.36z" fill="#DB5149"/><path d="M230.4 79.872l-20.48 15.36v48.64l20.48 -15.36z" fill="#2871B8"/><path d="M25.6 145.40800000000002l20.48 15.36v48.64l-20.48 -15.36z" fill="#2871B8"/><path d="M230.4 145.40800000000002l-20.48 15.36v48.64l20.48 -15.36z" fill="#DB5149"/></g><g clip-path="url(#env)"><path d="M25.6 78.84800000000001L128 136.192L230.4 78.84800000000001" fill="none" stroke="#19334B" stroke-width="11.776" stroke-linecap="round" stroke-linejoin="round"/><path d="M128 136.192V187.39200000000002" fill="none" stroke="#19334B" stroke-width="11.776" stroke-linecap="round" stroke-linejoin="round"/></g><circle cx="128" cy="137.3696" r="32.97280000000001" fill="#19334B" stroke="#FFF9EC" stroke-width="4.096"/><circle cx="128" cy="137.3696" r="27.0848" fill="none" stroke="#597287" stroke-width="1.7919999999999998"/><circle cx="128" cy="133.248" r="7.36" fill="#FFF9EC"/><path d="M124.688 136.19199999999998L122.7008 150.176H133.2992L131.312 136.19199999999998Z" fill="#FFF9EC"/></svg>