<svg xmlns="http://www.w3.org/2000/svg" width="20" height="20" viewBox="0 0 20 20"><title>ynotbit signal-shield application, 20px optical master</title><defs><linearGradient id="paper" x2="0" y2="1"><stop stop-color="#FFFDF5"/><stop offset="1" stop-color="#EDE6D5"/></linearGradient><linearGradient id="flap" x2="0" y2="1"><stop stop-color="#FFFDF7"/><stop offset="1" stop-color="#F5EFDF"/></linearGradient><linearGradient id="navy" x2=".7" y2="1"><stop stop-color="#345A7A"/><stop offset=".5" stop-color="#193650"/><stop offset="1" stop-color="#0D2135"/></linearGradient><clipPath id="env"><rect x="1" y="1" width="18" height="18" rx="4" fill="white" /></clipPath></defs><rect x="1" y="1" width="18" height="18" rx="4" fill="#FFF9EC" /><g clip-path="url(#env)"><path d="M1 6.66l2 1v3l-2 -1z" fill="#DB5149"/><path d="M19 6.66l-2 1v3l2 -1z" fill="#2871B8"/><path d="M1 12.42l2 1v3l-2 -1z" fill="#2871B8"/><path d="M19 12.42l-2 1v3l2 -1z" fill="#DB5149"/></g><g clip-path="url(#env)"><path d="M1 6L9.5 11L19 6" fill="none" stroke="#19334B" stroke-width="1" stroke-linecap="round" stroke-linejoin="round"/><path d="M9.5 11V15" fill="none" stroke="#19334B" stroke-width="1" stroke-linecap="round" stroke-linejoin="round"/></g><path d="M9.5 7.999999999999999Q8.42 8.959999999999999 6.5 9.259999999999998V11.12Q6.5 13.939999999999998 9.5 15.26Q12.5 13.939999999999998 12.5 11.12V9.259999999999998Q10.58 8.959999999999999 9.5 7.999999999999999Z" fill="#19334B" stroke="#FFF9EC" stroke-width="1" stroke-linejoin="round" paint-order="stroke"/></svg>