<svg xmlns="http://www.w3.org/2000/svg" width="20" height="20" viewBox="0 0 20 20"><title>ynotbit paper window, 20px optical master</title><defs><linearGradient id="paper" x2="0" y2="1"><stop stop-color="#FFFDF5"/><stop offset="1" stop-color="#EDE6D5"/></linearGradient><linearGradient id="flap" x2="0" y2="1"><stop stop-color="#FFFDF7"/><stop offset="1" stop-color="#F5EFDF"/></linearGradient><linearGradient id="navy" x2=".7" y2="1"><stop stop-color="#345A7A"/><stop offset=".5" stop-color="#193650"/><stop offset="1" stop-color="#0D2135"/></linearGradient><clipPath id="env"><rect x="1" y="3" width="18" height="14" rx="2" fill="white" /></clipPath></defs><rect x="1" y="3" width="18" height="14" rx="2" fill="#FFF9EC" /><g clip-path="url(#env)"><path d="M-3.5 3h2.79l-2 2h-2.79z M-3.5 15h2.79l-2 2h-2.79z" fill="#2871B8"/><path d="M1 3h2.79l-2 2h-2.79z M1 15h2.79l-2 2h-2.79z" fill="#DB5149"/><path d="M5.5 3h2.79l-2 2h-2.79z M5.5 15h2.79l-2 2h-2.79z" fill="#2871B8"/><path d="M10 3h2.79l-2 2h-2.79z M10 15h2.79l-2 2h-2.79z" fill="#DB5149"/><path d="M14.5 3h2.79l-2 2h-2.79z M14.5 15h2.79l-2 2h-2.79z" fill="#2871B8"/><path d="M19 3h2.79l-2 2h-2.79z M19 15h2.79l-2 2h-2.79z" fill="#DB5149"/><path d="M1 5l2 2v2.75l-2 -2z" fill="#2871B8"/><path d="M19 5l-2 2v2.75l2 -2z" fill="#DB5149"/><path d="M1 10l2 2v2.75l-2 -2z" fill="#DB5149"/><path d="M19 10l-2 2v2.75l2 -2z" fill="#2871B8"/></g><path d="M2.4 6L9.5 11L17.6 6" fill="none" stroke="#566575" stroke-width="1" stroke-linecap="round" stroke-linejoin="round"/><path d="M9.5 11V14" fill="none" stroke="#566575" stroke-width="1" stroke-linecap="round" stroke-linejoin="round"/></svg>