<svg xmlns="http://www.w3.org/2000/svg" width="40" height="40" viewBox="0 0 40 40"><title>ynotbit night application, 40px optical master</title><defs><linearGradient id="paper" x2="0" y2="1"><stop stop-color="#FFFDF5"/><stop offset="1" stop-color="#EDE6D5"/></linearGradient><linearGradient id="flap" x2="0" y2="1"><stop stop-color="#FFFDF7"/><stop offset="1" stop-color="#F5EFDF"/></linearGradient><linearGradient id="navy" x2=".7" y2="1"><stop stop-color="#345A7A"/><stop offset=".5" stop-color="#193650"/><stop offset="1" stop-color="#0D2135"/></linearGradient><clipPath id="env"><rect x="6" y="10.8" width="28.000000000000004" height="20.8" rx="2.8000000000000003" fill="white" /></clipPath></defs><rect x="2.4000000000000004" y="2.8000000000000003" width="35.2" height="35.2" rx="8.4" fill="#0B192B" /><rect x="2.4000000000000004" y="2.4000000000000004" width="35.2" height="35.2" rx="8.4" fill="url(#navy)" /><rect x="2.6400000000000006" y="2.6400000000000006" width="34.720000000000006" height="34.720000000000006" rx="8.200000000000001" fill="none" stroke="#8AA7C1" stroke-opacity=".25" stroke-width="0.32000000000000006"/><rect x="6" y="11.520000000000001" width="28.000000000000004" height="20.8" rx="2.8000000000000003" fill="#091827" opacity="0.45"/><rect x="6" y="10.8" width="28.000000000000004" height="20.8" rx="2.8000000000000003" fill="url(#paper)" /><rect x="6.2" y="11" width="27.600000000000005" height="20.400000000000002" rx="2.8000000000000003" fill="none" stroke="#B9B7AD" stroke-width="0.26"/><g clip-path="url(#env)"><path d="M3.1999999999999997 10.8h1.7360000000000002l-2.8000000000000003 2.8000000000000003h-1.7360000000000002z M3.1999999999999997 28.8h1.7360000000000002l-2.8000000000000003 2.8000000000000003h-1.7360000000000002z" fill="#2871B8"/><path d="M6 10.8h1.7360000000000002l-2.8000000000000003 2.8000000000000003h-1.7360000000000002z M6 28.8h1.7360000000000002l-2.8000000000000003 2.8000000000000003h-1.7360000000000002z" fill="#DB5149"/><path d="M8.8 10.8h1.7360000000000002l-2.8000000000000003 2.8000000000000003h-1.7360000000000002z M8.8 28.8h1.7360000000000002l-2.8000000000000003 2.8000000000000003h-1.7360000000000002z" fill="#2871B8"/><path d="M11.600000000000001 10.8h1.7360000000000002l-2.8000000000000003 2.8000000000000003h-1.7360000000000002z M11.600000000000001 28.8h1.7360000000000002l-2.8000000000000003 2.8000000000000003h-1.7360000000000002z" fill="#DB5149"/><path d="M14.4 10.8h1.7360000000000002l-2.8000000000000003 2.8000000000000003h-1.7360000000000002z M14.4 28.8h1.7360000000000002l-2.8000000000000003 2.8000000000000003h-1.7360000000000002z" fill="#2871B8"/><path d="M17.200000000000003 10.8h1.7360000000000002l-2.8000000000000003 2.8000000000000003h-1.7360000000000002z M17.200000000000003 28.8h1.7360000000000002l-2.8000000000000003 2.8000000000000003h-1.7360000000000002z" fill="#DB5149"/><path d="M20 10.8h1.7360000000000002l-2.8000000000000003 2.8000000000000003h-1.7360000000000002z M20 28.8h1.7360000000000002l-2.8000000000000003 2.8000000000000003h-1.7360000000000002z" fill="#2871B8"/><path d="M22.8 10.8h1.7360000000000002l-2.8000000000000003 2.8000000000000003h-1.7360000000000002z M22.8 28.8h1.7360000000000002l-2.8000000000000003 2.8000000000000003h-1.7360000000000002z" fill="#DB5149"/><path d="M25.6 10.8h1.7360000000000002l-2.8000000000000003 2.8000000000000003h-1.7360000000000002z M25.6 28.8h1.7360000000000002l-2.8000000000000003 2.8000000000000003h-1.7360000000000002z" fill="#2871B8"/><path d="M28.400000000000002 10.8h1.7360000000000002l-2.8000000000000003 2.8000000000000003h-1.7360000000000002z M28.400000000000002 28.8h1.7360000000000002l-2.8000000000000003 2.8000000000000003h-1.7360000000000002z" fill="#DB5149"/><path d="M31.200000000000003 10.8h1.7360000000000002l-2.8000000000000003 2.8000000000000003h-1.7360000000000002z M31.200000000000003 28.8h1.7360000000000002l-2.8000000000000003 2.8000000000000003h-1.7360000000000002z" fill="#2871B8"/><path d="M34 10.8h1.7360000000000002l-2.8000000000000003 2.8000000000000003h-1.7360000000000002z M34 28.8h1.7360000000000002l-2.8000000000000003 2.8000000000000003h-1.7360000000000002z" fill="#DB5149"/><path d="M6 13.600000000000001l2.8000000000000003 2.8000000000000003v2.7866666666666666l-2.8000000000000003 -2.8000000000000003z" fill="#2871B8"/><path d="M34 13.600000000000001l-2.8000000000000003 2.8000000000000003v2.7866666666666666l2.8000000000000003 -2.8000000000000003z" fill="#DB5149"/><path d="M6 18.666666666666668l2.8000000000000003 2.8000000000000003v2.7866666666666666l-2.8000000000000003 -2.8000000000000003z" fill="#DB5149"/><path d="M34 18.666666666666668l-2.8000000000000003 2.8000000000000003v2.7866666666666666l2.8000000000000003 -2.8000000000000003z" fill="#2871B8"/><path d="M6 23.733333333333334l2.8000000000000003 2.8000000000000003v2.7866666666666666l-2.8000000000000003 -2.8000000000000003z" fill="#2871B8"/><path d="M34 23.733333333333334l-2.8000000000000003 2.8000000000000003v2.7866666666666666l2.8000000000000003 -2.8000000000000003z" fill="#DB5149"/></g><path d="M8.8 28.8L20 22.032000000000004L31.2 28.8" fill="none" stroke="#D7CFC0" stroke-width="0.32000000000000006" stroke-linecap="round" stroke-linejoin="round"/><path d="M7.96 15.776000000000002L20 23.072000000000003L32.04 15.776000000000002L20 23.632000000000005Z" fill="#877D6C" opacity=".2"/><path d="M7.96 13.600000000000001V15.376000000000001L19.2 21.752000000000002Q20 22.312000000000005 20.8 21.752000000000002L32.04 15.376000000000001V13.600000000000001Z" fill="url(#flap)"/><path d="M7.96 15.376000000000001L20 22.032000000000004L32.04 15.376000000000001" fill="none" stroke="#9B9A92" stroke-width="0.36000000000000004" stroke-linecap="round" stroke-linejoin="round"/><path d="M20 22.032000000000004V27.44" fill="none" stroke="#C2B9A9" stroke-width="0.36000000000000004" stroke-linecap="round" stroke-linejoin="round"/></svg>