<svg xmlns="http://www.w3.org/2000/svg" width="128" height="128" viewBox="0 0 128 128"><title>ynotbit signal application, 128px optical master</title><defs><linearGradient id="paper" x2="0" y2="1"><stop stop-color="#FFFDF5"/><stop offset="1" stop-color="#EDE6D5"/></linearGradient><linearGradient id="flap" x2="0" y2="1"><stop stop-color="#FFFDF7"/><stop offset="1" stop-color="#F5EFDF"/></linearGradient><linearGradient id="navy" x2=".7" y2="1"><stop stop-color="#345A7A"/><stop offset=".5" stop-color="#193650"/><stop offset="1" stop-color="#0D2135"/></linearGradient><clipPath id="env"><rect x="7.68" y="7.68" width="112.64" height="112.64" rx="24.32" fill="white" /></clipPath></defs><rect x="7.68" y="9.984" width="112.64" height="112.64" rx="24.32" fill="#BDB4A2" opacity="0.28"/><rect x="7.68" y="7.68" width="112.64" height="112.64" rx="24.32" fill="url(#paper)" /><rect x="8.32" y="8.32" width="111.36" height="111.36" rx="24.32" fill="none" stroke="#B9B7AD" stroke-width="0.8320000000000001"/><g clip-path="url(#env)"><path d="M7.68 38.2976l10.24 7.68v24.32l-10.24 -7.68z" fill="#DB5149"/><path d="M120.32 38.2976l-10.24 7.68v24.32l10.24 -7.68z" fill="#2871B8"/><path d="M7.68 74.3424l10.24 7.68v24.32l-10.24 -7.68z" fill="#2871B8"/><path d="M120.32 74.3424l-10.24 7.68v24.32l10.24 -7.68z" fill="#DB5149"/></g><g clip-path="url(#env)"><path d="M7.68 36.9664L64 68.5056L120.32 36.9664" fill="none" stroke="#19334B" stroke-width="5.888" stroke-linecap="round" stroke-linejoin="round"/><path d="M64 68.5056V96.66560000000001" fill="none" stroke="#19334B" stroke-width="5.888" stroke-linecap="round" stroke-linejoin="round"/></g></svg>