<svg xmlns="http://www.w3.org/2000/svg" width="40" height="40" viewBox="0 0 40 40"><title>ynotbit signal application, 40px optical master</title><defs><linearGradient id="paper" x2="0" y2="1"><stop stop-color="#FFFDF5"/><stop offset="1" stop-color="#EDE6D5"/></linearGradient><linearGradient id="flap" x2="0" y2="1"><stop stop-color="#FFFDF7"/><stop offset="1" stop-color="#F5EFDF"/></linearGradient><linearGradient id="navy" x2=".7" y2="1"><stop stop-color="#345A7A"/><stop offset=".5" stop-color="#193650"/><stop offset="1" stop-color="#0D2135"/></linearGradient><clipPath id="env"><rect x="2.4000000000000004" y="2.4000000000000004" width="35.2" height="35.2" rx="7.6000000000000005" fill="white" /></clipPath></defs><rect x="2.4000000000000004" y="3.1200000000000006" width="35.2" height="35.2" rx="7.6000000000000005" fill="#BDB4A2" opacity="0.28"/><rect x="2.4000000000000004" y="2.4000000000000004" width="35.2" height="35.2" rx="7.6000000000000005" fill="url(#paper)" /><rect x="2.6000000000000005" y="2.6000000000000005" width="34.800000000000004" height="34.800000000000004" rx="7.6000000000000005" fill="none" stroke="#B9B7AD" stroke-width="0.26"/><g clip-path="url(#env)"><path d="M2.4000000000000004 11.968000000000002l3.2 2.4000000000000004v7.6000000000000005l-3.2 -2.4000000000000004z" fill="#DB5149"/><path d="M37.6 11.968000000000002l-3.2 2.4000000000000004v7.6000000000000005l3.2 -2.4000000000000004z" fill="#2871B8"/><path d="M2.4000000000000004 23.232000000000006l3.2 2.4000000000000004v7.6000000000000005l-3.2 -2.4000000000000004z" fill="#2871B8"/><path d="M37.6 23.232000000000006l-3.2 2.4000000000000004v7.6000000000000005l3.2 -2.4000000000000004z" fill="#DB5149"/></g><g clip-path="url(#env)"><path d="M2.4000000000000004 11.552000000000001L20 21.408L37.6 11.552000000000001" fill="none" stroke="#19334B" stroke-width="1.8399999999999999" stroke-linecap="round" stroke-linejoin="round"/><path d="M20 21.408V30.208000000000006" fill="none" stroke="#19334B" stroke-width="1.8399999999999999" stroke-linecap="round" stroke-linejoin="round"/></g></svg>