<svg xmlns="http://www.w3.org/2000/svg" width="32" height="32" viewBox="0 0 32 32"><title>ynotbit paper application, 32px optical master</title><defs><linearGradient id="paper" x2="0" y2="1"><stop stop-color="#FFFDF5"/><stop offset="1" stop-color="#EDE6D5"/></linearGradient><linearGradient id="flap" x2="0" y2="1"><stop stop-color="#FFFDF7"/><stop offset="1" stop-color="#F5EFDF"/></linearGradient><linearGradient id="navy" x2=".7" y2="1"><stop stop-color="#345A7A"/><stop offset=".5" stop-color="#193650"/><stop offset="1" stop-color="#0D2135"/></linearGradient><clipPath id="env"><rect x="3" y="3" width="26" height="26" rx="6" fill="white" /></clipPath></defs><rect x="3" y="3" width="26" height="26" rx="6" fill="#FFF9EC" /><g clip-path="url(#env)"><path d="M-1.333333333333333 3h2.6866666666666665l-3 3h-2.6866666666666665z M-1.333333333333333 26h2.6866666666666665l-3 3h-2.6866666666666665z" fill="#2871B8"/><path d="M3 3h2.6866666666666665l-3 3h-2.6866666666666665z M3 26h2.6866666666666665l-3 3h-2.6866666666666665z" fill="#DB5149"/><path d="M7.333333333333333 3h2.6866666666666665l-3 3h-2.6866666666666665z M7.333333333333333 26h2.6866666666666665l-3 3h-2.6866666666666665z" fill="#2871B8"/><path d="M11.666666666666666 3h2.6866666666666665l-3 3h-2.6866666666666665z M11.666666666666666 26h2.6866666666666665l-3 3h-2.6866666666666665z" fill="#DB5149"/><path d="M16 3h2.6866666666666665l-3 3h-2.6866666666666665z M16 26h2.6866666666666665l-3 3h-2.6866666666666665z" fill="#2871B8"/><path d="M20.333333333333332 3h2.6866666666666665l-3 3h-2.6866666666666665z M20.333333333333332 26h2.6866666666666665l-3 3h-2.6866666666666665z" fill="#DB5149"/><path d="M24.666666666666664 3h2.6866666666666665l-3 3h-2.6866666666666665z M24.666666666666664 26h2.6866666666666665l-3 3h-2.6866666666666665z" fill="#2871B8"/><path d="M29 3h2.6866666666666665l-3 3h-2.6866666666666665z M29 26h2.6866666666666665l-3 3h-2.6866666666666665z" fill="#DB5149"/><path d="M3 6l3 3v3.666666666666667l-3 -3z" fill="#2871B8"/><path d="M29 6l-3 3v3.666666666666667l3 -3z" fill="#DB5149"/><path d="M3 12.666666666666668l3 3v3.666666666666667l-3 -3z" fill="#DB5149"/><path d="M29 12.666666666666668l-3 3v3.666666666666667l3 -3z" fill="#2871B8"/><path d="M3 19.333333333333336l3 3v3.666666666666667l-3 -3z" fill="#2871B8"/><path d="M29 19.333333333333336l-3 3v3.666666666666667l3 -3z" fill="#DB5149"/></g><path d="M5.1 9L15.5 17L26.9 9" fill="none" stroke="#566575" stroke-width="1" stroke-linecap="round" stroke-linejoin="round"/><path d="M15.5 17V24" fill="none" stroke="#566575" stroke-width="1" stroke-linecap="round" stroke-linejoin="round"/></svg>